<svg width="28" height="24" viewBox="0 0 28 24" fill="none" xmlns="http://www.w3.org/2000/svg">
<path d="M21 2.8998C21 1.74043 20.0594 0.799805 18.9 0.799805H14.7C13.5406 0.799805 12.6 1.74043 12.6 2.8998V4.9998H9.8V1.8498C9.8 1.26793 9.33188 0.799805 8.75 0.799805C8.16812 0.799805 7.7 1.26793 7.7 1.8498V4.9998H4.9V1.8498C4.9 1.26793 4.43187 0.799805 3.85 0.799805C3.26812 0.799805 2.8 1.26793 2.8 1.8498V4.9998H2.1C0.940625 4.9998 0 5.94043 0 7.0998V11.2998V21.0998C0 22.2592 0.940625 23.1998 2.1 23.1998H13.3H14.7H18.9H25.9C27.0594 23.1998 28 22.2592 28 21.0998V11.2998C28 10.1404 27.0594 9.1998 25.9 9.1998H21V2.8998ZM25.2 16.8998V18.2998C25.2 18.6848 24.885 18.9998 24.5 18.9998H23.1C22.715 18.9998 22.4 18.6848 22.4 18.2998V16.8998C22.4 16.5148 22.715 16.1998 23.1 16.1998H24.5C24.885 16.1998 25.2 16.5148 25.2 16.8998ZM10.5 18.9998H9.1C8.715 18.9998 8.4 18.6848 8.4 18.2998V16.8998C8.4 16.5148 8.715 16.1998 9.1 16.1998H10.5C10.885 16.1998 11.2 16.5148 11.2 16.8998V18.2998C11.2 18.6848 10.885 18.9998 10.5 18.9998ZM5.6 18.2998C5.6 18.6848 5.285 18.9998 4.9 18.9998H3.5C3.115 18.9998 2.8 18.6848 2.8 18.2998V16.8998C2.8 16.5148 3.115 16.1998 3.5 16.1998H4.9C5.285 16.1998 5.6 16.5148 5.6 16.8998V18.2998ZM24.5 11.9998C24.885 11.9998 25.2 12.3148 25.2 12.6998V14.0998C25.2 14.4848 24.885 14.7998 24.5 14.7998H23.1C22.715 14.7998 22.4 14.4848 22.4 14.0998V12.6998C22.4 12.3148 22.715 11.9998 23.1 11.9998H24.5ZM11.2 8.4998V9.8998C11.2 10.2848 10.885 10.5998 10.5 10.5998H9.1C8.715 10.5998 8.4 10.2848 8.4 9.8998V8.4998C8.4 8.1148 8.715 7.7998 9.1 7.7998H10.5C10.885 7.7998 11.2 8.1148 11.2 8.4998ZM4.9 7.7998C5.285 7.7998 5.6 8.1148 5.6 8.4998V9.8998C5.6 10.2848 5.285 10.5998 4.9 10.5998H3.5C3.115 10.5998 2.8 10.2848 2.8 9.8998V8.4998C2.8 8.1148 3.115 7.7998 3.5 7.7998H4.9ZM11.2 14.0998C11.2 14.4848 10.885 14.7998 10.5 14.7998H9.1C8.715 14.7998 8.4 14.4848 8.4 14.0998V12.6998C8.4 12.3148 8.715 11.9998 9.1 11.9998H10.5C10.885 11.9998 11.2 12.3148 11.2 12.6998V14.0998ZM4.9 14.7998H3.5C3.115 14.7998 2.8 14.4848 2.8 14.0998V12.6998C2.8 12.3148 3.115 11.9998 3.5 11.9998H4.9C5.285 11.9998 5.6 12.3148 5.6 12.6998V14.0998C5.6 14.4848 5.285 14.7998 4.9 14.7998ZM18.2 12.6998V14.0998C18.2 14.4848 17.885 14.7998 17.5 14.7998H16.1C15.715 14.7998 15.4 14.4848 15.4 14.0998V12.6998C15.4 12.3148 15.715 11.9998 16.1 11.9998H17.5C17.885 11.9998 18.2 12.3148 18.2 12.6998ZM17.5 3.5998C17.885 3.5998 18.2 3.9148 18.2 4.2998V5.6998C18.2 6.0848 17.885 6.3998 17.5 6.3998H16.1C15.715 6.3998 15.4 6.0848 15.4 5.6998V4.2998C15.4 3.9148 15.715 3.5998 16.1 3.5998H17.5ZM18.2 8.4998V9.8998C18.2 10.2848 17.885 10.5998 17.5 10.5998H16.1C15.715 10.5998 15.4 10.2848 15.4 9.8998V8.4998C15.4 8.1148 15.715 7.7998 16.1 7.7998H17.5C17.885 7.7998 18.2 8.1148 18.2 8.4998Z" fill="#485573"/>
</svg>
