<svg width="28" height="24" viewBox="0 0 28 24" fill="none" xmlns="http://www.w3.org/2000/svg">
<g clip-path="url(#clip0_153_761)">
<g clip-path="url(#clip1_153_761)">
<path d="M8.4 2.8998C8.4 1.74043 9.34062 0.799805 10.5 0.799805H17.5C18.6594 0.799805 19.6 1.74043 19.6 2.8998V23.1998H16.1V19.6998C16.1 18.5404 15.1594 17.5998 14 17.5998C12.8406 17.5998 11.9 18.5404 11.9 19.6998V23.1998H8.4V2.8998ZM2.1 4.9998H7V23.1998H2.1C0.940625 23.1998 0 22.2592 0 21.0998V14.7998H3.5C3.885 14.7998 4.2 14.4848 4.2 14.0998C4.2 13.7148 3.885 13.3998 3.5 13.3998H0V10.5998H3.5C3.885 10.5998 4.2 10.2848 4.2 9.8998C4.2 9.5148 3.885 9.1998 3.5 9.1998H0V7.0998C0 5.94043 0.940625 4.9998 2.1 4.9998ZM25.9 4.9998C27.0594 4.9998 28 5.94043 28 7.0998V9.1998H24.5C24.115 9.1998 23.8 9.5148 23.8 9.8998C23.8 10.2848 24.115 10.5998 24.5 10.5998H28V13.3998H24.5C24.115 13.3998 23.8 13.7148 23.8 14.0998C23.8 14.4848 24.115 14.7998 24.5 14.7998H28V21.0998C28 22.2592 27.0594 23.1998 25.9 23.1998H21V4.9998H25.9ZM13.65 3.5998C13.265 3.5998 12.95 3.9148 12.95 4.2998V5.3498H11.9C11.515 5.3498 11.2 5.6648 11.2 6.0498V6.7498C11.2 7.1348 11.515 7.4498 11.9 7.4498H12.95V8.4998C12.95 8.8848 13.265 9.1998 13.65 9.1998H14.35C14.735 9.1998 15.05 8.8848 15.05 8.4998V7.4498H16.1C16.485 7.4498 16.8 7.1348 16.8 6.7498V6.0498C16.8 5.6648 16.485 5.3498 16.1 5.3498H15.05V4.2998C15.05 3.9148 14.735 3.5998 14.35 3.5998H13.65Z" fill="#485573"/>
</g>
</g>
<defs>
<clipPath id="clip0_153_761">
<rect width="28" height="22.4" fill="white" transform="translate(0 0.799805)"/>
</clipPath>
<clipPath id="clip1_153_761">
<rect width="28" height="22.4" fill="white" transform="translate(0 0.799805)"/>
</clipPath>
</defs>
</svg>
